#define cross_cursor_width 16
#define cross_cursor_height 16
#define cross_cursor_x_hot 4
#define cross_cursor_y_hot 4
static unsigned char cross_cursor_bits[] = {
   0x28, 0x00, 0x28, 0x00, 0x28, 0x00, 0xef, 0x01, 0x01, 0x01, 0xef, 0x01,
   0x28, 0x00, 0x28, 0x00, 0x28, 0x00, 0x00, 0x00, 0x00, 0x00, 0x00, 0x00,
   0x00, 0x00, 0x00, 0x00, 0x00, 0x00, 0x00, 0x00 };
