#define cross_mask_width 16
#define cross_mask_height 16
#define cross_mask_x_hot 4
#define cross_mask_y_hot 4
static unsigned char cross_mask_bits[] = {
   0x00, 0x00, 0x10, 0x00, 0x10, 0x00, 0x10, 0x00, 0xfe, 0x00, 0x10, 0x00,
   0x10, 0x00, 0x10, 0x00, 0x00, 0x00, 0x00, 0x00, 0x00, 0x00, 0x00, 0x00,
   0x00, 0x00, 0x00, 0x00, 0x00, 0x00, 0x00, 0x00 };
